<svg width="115.74" height="125.00125" xmlns="http://www.w3.org/2000/svg">

 <g>
  <title>background</title>
  <rect fill="none" id="canvas_background" height="402" width="582" y="-1" x="-1"/>
 </g>
 <g>
  <title>Layer 1</title>
  <path id="svg_1" d="m95.108,84.125c-0.484,0 -0.955,-0.252 -1.216,-0.701l-28.043,-48.634c-0.386,-0.671 -0.155,-1.528 0.516,-1.917c0.673,-0.386 1.527,-0.156 1.916,0.515l28.043,48.634c0.386,0.67 0.156,1.527 -0.515,1.916c-0.222,0.126 -0.463,0.187 -0.701,0.187z"/>
  <path id="svg_2" d="m76.938,84.125l-75.535,0c-0.501,0 -0.964,-0.266 -1.213,-0.701c-0.252,-0.433 -0.252,-0.967 -0.003,-1.401l46.824,-81.307c0.251,-0.433 0.714,-0.701 1.215,-0.701l19.23,0c0.775,0 1.402,0.627 1.402,1.402c0,0.774 -0.627,1.401 -1.402,1.401l-18.419,0l-45.209,78.503l73.11,0c0.774,0 1.401,0.627 1.401,1.401c0,0.776 -0.627,1.403 -1.401,1.403z"/>
  <path id="svg_3" d="m48.892,34.089"/>
  <path id="svg_4" d="m76.938,84.125l-75.535,0c-0.775,0 -1.402,-0.627 -1.402,-1.402c0,-0.774 0.627,-1.401 1.402,-1.401l73.109,0l-17.746,-30.768c-0.386,-0.67 -0.156,-1.527 0.515,-1.916c0.671,-0.386 1.528,-0.156 1.917,0.515l18.956,32.87c0.249,0.435 0.249,0.969 -0.003,1.401c-0.25,0.432 -0.712,0.701 -1.213,0.701z"/>
  <path id="svg_5" d="m28.707,100.001l-17.947,0c-0.775,0 -1.402,-0.627 -1.402,-1.401c0,-0.775 0.627,-1.402 1.402,-1.402l17.946,0c0.774,0 1.401,0.627 1.401,1.402c0.001,0.774 -0.626,1.401 -1.4,1.401z"/>
  <path id="svg_6" d="m76.938,84.125l-75.535,0c-0.501,0 -0.964,-0.269 -1.213,-0.701c-0.252,-0.433 -0.252,-0.967 -0.003,-1.401l18.954,-32.87c0.389,-0.671 1.24,-0.901 1.917,-0.515c0.671,0.389 0.901,1.246 0.515,1.916l-17.745,30.767l73.11,0c0.774,0 1.401,0.627 1.401,1.401c0,0.776 -0.627,1.403 -1.401,1.403z"/>
  <path id="svg_7" d="m104.236,100.001l-75.529,0c-0.775,0 -1.402,-0.627 -1.402,-1.401c0,-0.775 0.627,-1.402 1.402,-1.402l73.104,0l-17.744,-30.764c-0.386,-0.671 -0.156,-1.528 0.515,-1.917c0.671,-0.383 1.527,-0.158 1.916,0.515l18.954,32.867c0.249,0.436 0.249,0.969 -0.003,1.401c-0.249,0.432 -0.712,0.701 -1.213,0.701z"/>
  <path id="svg_8" d="m76.938,84.125l-56.305,0c-0.775,0 -1.402,-0.627 -1.402,-1.402c0,-0.774 0.627,-1.401 1.402,-1.401l56.305,0c0.774,0 1.401,0.627 1.401,1.401c0,0.775 -0.627,1.402 -1.401,1.402z"/>
  <path id="svg_9" d="m67.432,67.644l-37.34,0c-0.501,0 -0.964,-0.266 -1.213,-0.701c-0.252,-0.433 -0.252,-0.967 -0.003,-1.401l37.34,-64.839c0.386,-0.671 1.24,-0.901 1.917,-0.515c0.67,0.386 0.9,1.243 0.515,1.917l-36.131,62.735l34.915,0c0.774,0 1.401,0.627 1.401,1.401c0,0.776 -0.626,1.403 -1.401,1.403z"/>
  <path id="svg_10" d="m67.432,67.644l-18.888,0c-0.501,0 -0.964,-0.266 -1.213,-0.701c-0.252,-0.433 -0.252,-0.967 -0.003,-1.401l18.519,-32.155c0.389,-0.671 1.24,-0.901 1.916,-0.515c0.671,0.386 0.9,1.243 0.515,1.917l-17.308,30.051l16.462,0c0.774,0 1.401,0.627 1.401,1.401c0,0.776 -0.626,1.403 -1.401,1.403z"/>
  <path id="svg_11" d="m10.76,100.001c-0.479,0 -0.947,-0.246 -1.208,-0.69l-9.357,-15.876c-0.394,-0.668 -0.172,-1.524 0.496,-1.919c0.665,-0.392 1.525,-0.173 1.919,0.495l9.358,15.877c0.394,0.668 0.172,1.527 -0.496,1.919c-0.224,0.131 -0.468,0.194 -0.712,0.194z"/>
  <path id="svg_12" d="m104.236,100.001c-0.26,0 -0.521,-0.071 -0.753,-0.219c-0.651,-0.416 -0.846,-1.281 -0.43,-1.936l9.645,-15.159l-45.241,-78.464l-36.125,62.733c-0.392,0.671 -1.243,0.896 -1.917,0.515c-0.671,-0.386 -0.901,-1.243 -0.515,-1.916l37.34,-64.839c0.504,-0.865 1.928,-0.865 2.432,0l46.881,81.307c0.261,0.451 0.247,1.013 -0.032,1.453l-10.103,15.876c-0.268,0.419 -0.719,0.649 -1.182,0.649z"/>
 </g>
</svg>
